<svg width="1374" height="992" fill="none" xmlns="http://www.w3.org/2000/svg"><path d="M1026.94 209.711c-11.1 0-21.41 3.516-29.88 9.439-5.419-36.111-36.487-63.777-74.043-63.777-36.525 0-66.982 26.214-73.547 60.873a58.696 58.696 0 00-11.641-1.147c-32.365 0-58.624 26.291-58.624 58.695 0 32.404 26.259 58.695 58.624 58.695a60.33 60.33 0 0014.961-1.911c8.741 20.291 28.854 34.468 52.327 34.468 19.236 0 36.22-9.553 46.525-24.151a38.348 38.348 0 0021.488 6.535c20.419 0 37.14-15.897 38.51-35.997a52.401 52.401 0 0015.38 2.331c28.7 0 51.98-23.309 51.98-52.045s-23.35-52.008-52.06-52.008z" fill="#DDE8FA"/><path fill-rule="evenodd" clip-rule="evenodd" d="M966.61 238.304c-3.361-.02-6.134 2.509-6.279 5.723v25.255c0 3.159 2.675 5.72 5.975 5.72h.406c3.303 0 5.982-2.561 5.982-5.72v-25.255c0-3.163-2.679-5.723-5.982-5.723h-.102zm-24.181-10.8c-1.568 0-2.841-1.215-2.841-2.716 0-1.5 1.273-2.716 2.841-2.716 1.567 0 2.837 1.216 2.837 2.716-.22 1.394-1.355 2.493-2.804 2.716h-.033zm-26.385 0c-1.567 0-2.837-1.215-2.837-2.716 0-1.5 1.27-2.716 2.837-2.716 1.568 0 2.841 1.216 2.841 2.716.017 1.481-1.223 2.7-2.77 2.716h-.071zm27.023-12.642l5.036-6.92c.044-.42-.06-.844-.304-1.196a.807.807 0 00-1.101.052.713.713 0 00-.148.239l-5.037 7.243a32.67 32.67 0 00-12.261-2.134c-4.179.061-8.32.769-12.258 2.101l-4.631-7.21c-.122-.395-.554-.618-.966-.501a.815.815 0 00-.352.21 1.188 1.188 0 00-.642 1.196l4.696 6.92c-8.357 3.715-13.816 11.62-14.12 20.434v1.52h56.548v-1.52c-.31-8.908-5.931-16.855-14.46-20.434zm-41.78 64.052c.091 2.933 2.611 5.257 5.671 5.238h5.979v13.515c-.091 3.159 2.51 5.794 5.81 5.882.044.003.091.003.138.003h.233c3.304 0 5.979-2.561 5.979-5.72v-13.68h8.178v13.515c-.095 3.159 2.503 5.794 5.806 5.885.102.003.203.003.304 0h.304c3.304 0 5.982-2.561 5.982-5.72v-13.68h5.875c3.117 0 5.64-2.419 5.64-5.4v-39.543h-55.899v39.705zm-9.191-40.61c-3.361-.02-6.134 2.509-6.28 5.723v25.255c0 3.159 2.676 5.72 5.979 5.72h.301c3.303.055 6.026-2.467 6.08-5.623v-25.352c.118-3.053-2.371-5.617-5.56-5.727a6.949 6.949 0 00-.52.004z" fill="#fff"/><path d="M475.367 262.177c0 24.533-19.885 44.442-44.388 44.442-5.572 0-10.954-1.032-15.877-2.943.076.955.115 1.949.115 2.943 0 20.061-16.221 36.302-36.259 36.302-16.984 0-31.22-11.694-35.151-27.437-9.924 9.133-23.129 14.712-37.671 14.712-30.724 0-55.609-24.953-55.609-55.676 0-26.749 18.855-49.103 43.968-54.453-.038-.764-.038-1.529-.038-2.293 0-31.334 25.381-56.746 56.678-56.746 31.296 0 56.677 25.412 56.677 56.746 0 2.293-.152 4.547-.42 6.764a44.302 44.302 0 0123.587-6.764c24.503-.038 44.388 19.832 44.388 44.403z" fill="#DDE8FA"/><path d="M390.446 245.975h-14.961v-41.919h-25.076v41.919h-14.923l27.48 34.659 27.48-34.659zm4.084 36.111h-63.128V292.9h63.128v-10.814z" fill="#fff"/><path opacity=".25" d="M1254.5 881.564c0 7.337-.15 14.636-.46 21.896-.04 1.07-.08 2.14-.15 3.21h-3.51c-1.07 0-2.14 0-3.21.038-4.35.039-8.82.077-13.43.115-8.97.076-18.48.115-28.4.191-3.55.038-7.14.038-10.76.076-10.57.077-21.64.115-33.17.191-1.95 0-3.89 0-5.84.039-5.69.038-11.49.038-17.4.076-12.94.077-26.41.115-40.34.191-6.23.038-12.56.038-18.97.077-85.383.305-186.944.535-297.589.611-33.358.038-67.517.038-102.325.038h-18.091c-163.964 0-313.043-.344-426.398-.84-33.358-.153-63.624-.306-90.264-.497-3.244-.038-6.45-.038-9.58-.077-1.679 0-3.321-.038-4.962-.038-2.137 0-4.236-.038-6.297-.038-1.069 0-2.176 0-3.244-.038-.039-1.147-.115-2.293-.153-3.439-.115-2.828-.191-5.656-.267-8.484a512.643 512.643 0 01-.153-13.298c0-27.322 2.061-54.147 6.03-80.361.611-3.974 1.26-7.948 1.947-11.922a521.082 521.082 0 018.473-39.474 523.264 523.264 0 0116.183-52.198c9.007-24.571 19.808-48.301 32.212-71.114a598.917 598.917 0 013.741-6.764 573.34 573.34 0 0114.198-23.806c99.653-157.895 279.456-263.323 484.716-263.323 202.245 0 379.793 102.333 480.293 256.406 2.71 4.127 5.34 8.331 7.94 12.534.61.955 1.18 1.949 1.75 2.904a530.267 530.267 0 0128.05 52.696 529.88 529.88 0 0131.26 86.093 552 552 0 017.71 32.786 510.62 510.62 0 012.06 10.776c5.23 29.08 8.09 58.924 8.4 89.341v5.426z" fill="#DDE8FA"/><path d="M1280.45 903.157c0 .496-7.82.955-22.44 1.413-4.73.153-10.19.306-16.3.421-1.22.038-2.48.038-3.74.076-2.78.077-5.72.115-8.77.191-3.32.077-6.8.115-10.42.191-1.03 0-2.03.039-3.06.039-.61 0-1.26-.001-1.91.038-1.52 0-3.12.038-4.73.076-.91 0-1.83.038-2.78.038-1.3 0-2.6.039-3.9.077h-.99c-.72 0-1.45 0-2.17.038-.96 0-1.91.038-2.87.038-3.89.038-7.9.115-12.02.153-8.05.115-16.53.191-25.46.306l-9.65.114c-9.47.115-19.39.191-29.74.306-1.71 0-3.47.038-5.22.038-5.12.039-10.31.077-15.58.115-11.6.115-23.66.191-36.18.267-5.57.039-11.26.077-17.02.115-76.524.497-167.552.841-266.709.994-29.884.038-60.532.076-91.714.076h-16.221c-146.942-.038-280.602-.535-382.201-1.337-29.923-.23-57.021-.497-80.914-.765l-8.587-.114c-1.489 0-2.977-.039-4.427-.077-1.909 0-3.817-.038-5.649-.076-.992 0-1.947 0-2.901-.038h-.42c-4.961-.077-9.77-.153-14.388-.191-3.474-.039-6.794-.115-10.038-.153l-7.863-.115c-1.488-.038-2.977-.038-4.427-.076-1.03 0-2.023-.039-3.015-.039-2.405-.038-4.695-.114-6.946-.152l-5.191-.115c-1.45-.038-2.824-.077-4.198-.077h-.726c-22.861-.534-35.342-1.146-35.342-1.757 0-.612 11.45-1.147 32.518-1.682h.534c2.558-.076 5.267-.114 8.13-.191.954-.038 1.908-.038 2.862-.076 1.336-.038 2.748-.077 4.122-.077 1.336-.038 2.71-.038 4.084-.076a216.09 216.09 0 015-.076c2.71-.039 5.572-.115 8.473-.153 3.244-.077 6.641-.115 10.114-.153 4.122-.076 8.435-.115 12.862-.191 1.222 0 2.443-.038 3.664-.077.993 0 1.985-.038 3.016-.038h.114c1.069 0 2.176-.038 3.282-.038h.764l8.778-.115c20.496-.267 43.548-.496 68.815-.726 6.183-.038 12.48-.114 18.892-.152 1.679 0 3.397-.039 5.076-.039 31.03-.229 64.96-.458 101.218-.611 80.837-.382 173.391-.65 272.052-.65h19.045c30.457 0 60.38 0 89.578.077 72.44.076 140.567.305 201.939.611 22.135.115 43.395.229 63.625.344 7.25.038 14.39.076 21.41.153 5.5.038 10.88.076 16.18.115 5.65.038 11.19.076 16.61.152 2.48.039 4.92.039 7.36.077 3.32.038 6.6.038 9.81.076 2.94.038 5.8.038 8.66.077 10.2.076 19.97.191 29.28.305 2.36.038 4.65.077 6.94.077 7.98.076 15.58.191 22.87.267h.72c4.58.077 9.01.115 13.32.191l6.87.115h.31c.84 0 1.68 0 2.52.038h.03c1.19.038 2.33.038 3.48.077 1.18 0 2.33.038 3.47.038 1.83.038 3.66.076 5.46.076.88 0 1.75.038 2.63.038 4.12.077 8.06.153 11.8.23 2.36.038 4.69.076 6.9.153 1.3.038 2.56.076 3.78.076 5.88.153 11.11.267 15.69.42 14.43.306 22.17.803 22.17 1.3z" fill="#7ED321"/><path d="M1010.08 900.175a275.602 275.602 0 01-3.47 3.439c-1.11 0-2.21.039-3.32.039-4.466.038-9.122.076-13.855.114-9.274.077-19.045.153-29.312.191-3.664.039-7.366.039-11.106.077-10.916.076-22.328.114-34.236.191-1.985 0-4.007.038-6.03.038a49.787 49.787 0 01-.802-4.777c-.954-8.789.573-18.189 2.214-27.016 3.626-19.603 4.847-34.086 8.511-53.727 43.93-43.6 100.076-74.782 160.296-88.959 1.03 63.242-24.88 125.605-68.89 170.39z" fill="#7ED321"/><path opacity=".5" d="M1068.36 745.491c.39.459-1.29 2.599-4.65 6.076-.84.879-1.8 1.796-2.83 2.828-1.03 1.031-2.13 2.178-3.32 3.362-2.4 2.408-5.19 5.044-8.17 8.101-1.52 1.491-3.09 3.096-4.73 4.701-.84.802-1.64 1.681-2.48 2.522-.84.878-1.72 1.757-2.59 2.636-.88.879-1.76 1.796-2.68 2.713-.45.459-.91.917-1.37 1.376-.46.459-.92.955-1.37 1.452-1.84 1.949-3.74 3.936-5.65 5.961a768.453 768.453 0 00-24.31 27.322c-8.325 9.936-15.958 19.68-22.714 28.66a940.72 940.72 0 00-4.885 6.611c-.382.535-.802 1.07-1.183 1.605l-1.145 1.604c-.764 1.07-1.489 2.102-2.214 3.096a99.464 99.464 0 01-2.176 2.98c-.687.994-1.412 1.949-2.061 2.904-1.335 1.911-2.595 3.745-3.816 5.503-2.481 3.477-4.618 6.687-6.565 9.477-.992 1.375-1.908 2.675-2.748 3.859-.84 1.185-1.603 2.293-2.29 3.248-2.824 3.898-4.656 5.923-5.191 5.618-.534-.306.268-2.866 2.214-7.337.496-1.108 1.031-2.331 1.641-3.669.649-1.337 1.374-2.751 2.138-4.279 1.564-3.057 3.358-6.535 5.534-10.241 1.068-1.873 2.213-3.822 3.397-5.885.572-1.032 1.221-2.025 1.87-3.095.649-1.032 1.297-2.102 1.984-3.172a248.38 248.38 0 002.061-3.286c.344-.574.687-1.109 1.069-1.682.382-.573.725-1.108 1.107-1.681 1.527-2.255 3.053-4.547 4.656-6.917a416.27 416.27 0 0122.557-29.576c8.51-10.088 17.14-19.259 25.23-27.322 2.06-1.987 4.08-3.898 6.03-5.809.49-.458.99-.917 1.45-1.375.49-.459.99-.879 1.45-1.338.99-.879 1.95-1.757 2.86-2.598.96-.841 1.87-1.681 2.79-2.484.91-.802 1.79-1.643 2.71-2.369 1.79-1.529 3.55-2.981 5.19-4.356 3.28-2.79 6.41-5.159 9.16-7.223 1.37-1.031 2.63-1.987 3.85-2.827 1.22-.841 2.33-1.605 3.32-2.255 4.09-2.675 6.49-3.936 6.87-3.439z" fill="#fff"/><path d="M932.222 899.755c-.878 1.452-1.755 2.866-2.633 4.318-10.916.076-22.328.115-34.236.191-7.786.038-15.801.077-24.007.115-13.358.076-27.251.114-41.639.191-6.451.038-12.977.038-19.58.076a109.139 109.139 0 01-3.817-5.502c-5.954-9.286-10.228-19.642-12.442-30.456-5.954-29.156 11.755-44.479 19.312-73.253 22.213-84.565 81.982-158.468 159.919-197.904 30.261 100.347 13.358 212.654-40.877 302.224z" fill="#FFAC01"/><path opacity=".5" d="M961.649 617.364c.611.114.382 4.471-.572 12.304a259.163 259.163 0 01-.84 6.534c-.343 2.37-.84 4.93-1.298 7.719-1.03 5.503-2.061 11.846-3.702 18.686-.801 3.44-1.603 7.07-2.481 10.815-.419 1.872-.954 3.783-1.488 5.732-.534 1.948-1.069 3.897-1.603 5.922-.534 1.988-1.107 4.051-1.679 6.114-.306 1.032-.573 2.102-.878 3.134a98.582 98.582 0 01-.993 3.133c-1.335 4.242-2.671 8.56-4.083 13.031-5.916 17.731-13.282 36.99-22.252 56.631-9.083 19.603-18.892 37.678-28.51 53.727-2.481 3.974-4.885 7.834-7.252 11.578-.572.956-1.183 1.873-1.755 2.79-.573.917-1.222 1.796-1.794 2.713a318.718 318.718 0 00-3.55 5.235 637.303 637.303 0 00-3.435 5.044c-1.145 1.643-2.214 3.286-3.397 4.853-2.29 3.095-4.503 6.076-6.603 8.904-4.122 5.732-8.244 10.623-11.793 14.979-1.794 2.178-3.435 4.204-5 6-1.603 1.796-3.091 3.4-4.427 4.853-5.343 5.808-8.511 8.827-8.969 8.444-.458-.382 1.793-4.126 6.297-10.584 1.107-1.605 2.405-3.363 3.779-5.312 1.374-1.949 2.786-4.127 4.389-6.381 3.129-4.586 6.87-9.706 10.61-15.591 1.947-2.904 3.969-5.961 6.069-9.133 1.068-1.567 2.061-3.248 3.129-4.929 1.031-1.682 2.1-3.401 3.206-5.121 1.107-1.719 2.214-3.516 3.321-5.312.572-.917 1.145-1.795 1.679-2.713.535-.917 1.107-1.872 1.641-2.827 2.214-3.783 4.504-7.643 6.832-11.617 9.084-16.049 18.549-33.971 27.518-53.268 8.817-19.374 16.298-38.213 22.557-55.562 1.488-4.356 2.977-8.636 4.389-12.763.344-1.031.725-2.063 1.069-3.095.343-1.032.649-2.063.954-3.057.649-2.025 1.259-4.012 1.87-5.961.611-1.949 1.221-3.898 1.832-5.77.573-1.911 1.221-3.745 1.718-5.579 1.03-3.669 2.061-7.184 3.015-10.547 2.023-6.687 3.473-12.839 4.923-18.227.687-2.675 1.412-5.197 2.023-7.49.573-2.331 1.069-4.433 1.565-6.343 1.985-7.643 3.359-11.808 3.969-11.693z" fill="#fff"/><path d="M363.92 900.175a290.105 290.105 0 003.473 3.439c1.107 0 2.213.039 3.32.039 4.466.038 9.122.076 13.855.114 9.274.077 19.045.153 29.312.191 3.664.039 7.366.039 11.145.077 10.915.076 22.327.114 34.235.191 1.985 0 4.008.038 6.03.038.344-1.567.611-3.172.802-4.777.954-8.789-.573-18.189-2.214-27.016-3.626-19.603-4.847-34.086-8.511-53.727-43.93-43.6-100.073-74.782-160.3-88.959-1.069 63.242 24.846 125.605 68.853 170.39z" fill="#7ED321"/><path opacity=".5" d="M305.639 745.491c-.381.459 1.298 2.599 4.657 6.076.839.879 1.793 1.796 2.824 2.828 1.03 1.031 2.137 2.178 3.32 3.362 2.405 2.408 5.191 5.044 8.168 8.101 1.527 1.491 3.092 3.096 4.733 4.701.839.802 1.641 1.681 2.481 2.522.839.878 1.717 1.757 2.595 2.636.878.879 1.756 1.796 2.672 2.713l1.374 1.376a51 51 0 011.374 1.452c1.832 1.949 3.74 3.936 5.648 5.961a772.394 772.394 0 0124.312 27.322c8.321 9.936 15.954 19.68 22.71 28.66a940.72 940.72 0 014.885 6.611c.382.535.801 1.07 1.183 1.605l1.145 1.604c.763 1.07 1.489 2.102 2.214 3.096.725 1.031 1.45 2.025 2.175 2.98.687.994 1.412 1.949 2.061 2.904 1.336 1.911 2.596 3.745 3.817 5.503 2.481 3.477 4.618 6.687 6.565 9.477.992 1.375 1.908 2.675 2.748 3.859.839 1.185 1.603 2.293 2.29 3.248 2.824 3.898 4.656 5.923 5.19 5.618.535-.306-.267-2.866-2.213-7.337-.497-1.108-1.031-2.331-1.642-3.669-.648-1.337-1.374-2.751-2.137-4.279-1.565-3.057-3.359-6.535-5.534-10.241-1.069-1.873-2.214-3.822-3.397-5.885-.572-1.032-1.221-2.025-1.87-3.095-.649-1.032-1.298-2.102-1.985-3.172a248.38 248.38 0 01-2.061-3.286 40.575 40.575 0 00-1.068-1.682c-.382-.573-.726-1.108-1.107-1.681-1.527-2.255-3.054-4.547-4.657-6.917a415.944 415.944 0 00-22.556-29.576c-8.511-10.088-17.137-19.259-25.228-27.322-2.061-1.987-4.084-3.898-6.031-5.809a50.905 50.905 0 01-1.45-1.375c-.496-.459-.992-.879-1.45-1.338-.993-.879-1.947-1.757-2.863-2.598-.954-.841-1.87-1.681-2.786-2.484-.916-.802-1.794-1.643-2.71-2.369-1.794-1.529-3.549-2.981-5.19-4.356-3.283-2.79-6.412-5.159-9.16-7.223-1.374-1.031-2.634-1.987-3.855-2.827-1.222-.841-2.328-1.605-3.321-2.255-4.084-2.675-6.488-3.936-6.87-3.439z" fill="#fff"/><path d="M441.78 899.755c.878 1.452 1.756 2.866 2.634 4.318 10.916.076 22.327.115 34.235.191 7.786.038 15.801.077 24.007.115 13.359.076 27.251.114 41.64.191 6.45.038 12.977.038 19.58.076a109.12 109.12 0 003.816-5.502c5.954-9.286 10.229-19.642 12.443-30.456 5.954-29.156-11.756-44.479-19.351-73.253-22.213-84.565-81.982-158.468-159.918-197.904-30.228 100.347-13.32 212.654 40.914 302.224z" fill="#FFAC01"/><path opacity=".5" d="M412.352 617.364c-.61.114-.381 4.471.573 12.304.229 1.949.496 4.127.84 6.534.343 2.37.839 4.93 1.297 7.719 1.031 5.503 2.061 11.846 3.702 18.686.802 3.44 1.603 7.07 2.481 10.815.42 1.872.954 3.783 1.489 5.732a655.003 655.003 0 011.603 5.922c.534 1.988 1.107 4.051 1.679 6.114.305 1.032.573 2.102.878 3.134.305 1.032.649 2.102.992 3.133 1.336 4.242 2.672 8.56 4.084 13.031 5.916 17.731 13.282 36.99 22.251 56.631 9.084 19.603 18.893 37.678 28.511 53.727 2.481 3.974 4.885 7.834 7.252 11.578.572.956 1.183 1.873 1.755 2.79.573.917 1.221 1.796 1.794 2.713a325.015 325.015 0 013.549 5.235 611.906 611.906 0 013.436 5.044c1.145 1.643 2.213 3.286 3.396 4.853 2.29 3.095 4.504 6.076 6.603 8.904 4.122 5.732 8.244 10.623 11.794 14.979 1.794 2.178 3.435 4.204 4.999 6 1.603 1.796 3.092 3.4 4.428 4.853 5.343 5.808 8.511 8.827 8.969 8.444.458-.382-1.794-4.126-6.298-10.584-1.106-1.605-2.404-3.363-3.778-5.312-1.374-1.949-2.786-4.127-4.389-6.381-3.13-4.586-6.87-9.706-10.61-15.591-1.947-2.904-3.97-5.961-6.069-9.133-1.069-1.567-2.061-3.248-3.13-4.929a269.775 269.775 0 00-3.206-5.121c-1.107-1.719-2.213-3.516-3.32-5.312-.573-.917-1.145-1.795-1.679-2.713-.535-.917-1.107-1.872-1.642-2.827-2.213-3.783-4.503-7.643-6.832-11.617-9.083-16.049-18.549-33.971-27.518-53.268-8.816-19.374-16.297-38.213-22.556-55.562-1.489-4.356-2.977-8.636-4.389-12.763-.344-1.031-.726-2.063-1.069-3.095-.344-1.032-.649-2.063-.954-3.057-.649-2.025-1.26-4.012-1.87-5.961-.611-1.949-1.222-3.898-1.832-5.77-.573-1.911-1.222-3.745-1.718-5.579-1.03-3.669-2.061-7.184-3.015-10.547-2.023-6.687-3.473-12.839-4.924-18.227-.687-2.675-1.412-5.197-2.022-7.49-.573-2.331-1.069-4.433-1.565-6.343-1.985-7.643-3.359-11.808-3.97-11.693z" fill="#fff"/><path d="M844.074 904.925h-314.22c-7.022 0-12.581-5.846-12.581-12.862V262.702c0-7.016 5.559-12.57 12.581-12.57h303.395c12.873 0 23.406 10.523 23.406 23.385v618.546c.293 7.016-5.559 12.862-12.581 12.862z" fill="#002A40"/><path d="M839.979 904.924H691.353l-4.388-654.793h153.014c9.362 0 16.677 7.6 16.677 16.662V887.97c.292 9.354-7.315 16.954-16.677 16.954z" fill="#2A292E"/><path d="M833.541 888.845H540.386a7.863 7.863 0 01-7.9-7.892v-611.53c.293-4.093 3.804-7.601 7.9-7.601h293.155c4.389 0 7.9 3.508 7.9 7.893v611.822c0 4.093-3.511 7.308-7.9 7.308z" fill="#fff"/><path d="M601.238 256.855l8.777 18.417c2.048 4.092 6.144 6.723 10.533 6.723h135.167c4.974 0 9.363-2.923 10.825-7.6l6.437-17.54H601.238z" fill="#2A292E"/><path d="M687.257 281.995h68.169c4.974 0 9.363-2.923 10.825-7.6l6.437-17.54h-85.723l.292 25.14z" fill="#000"/><path opacity=".75" d="M729.631 391.643h-85.264l.534-11.655h84.196l.534 11.655zm1.719 40.659h-88.7l1.031-24.38h86.638l1.031 24.38zm44.616 132.75L687 679.843l-88.967-114.791h38.93l5-116.472h90.073l5 116.472h38.93zm16.87 157.398H581.164l2.176-32.825h207.321l2.175 32.825z" fill="#0AF"/><path d="M503.723 564.172c24.578 0 44.502-19.948 44.502-44.556 0-24.607-19.924-44.555-44.502-44.555-24.578 0-44.502 19.948-44.502 44.555 0 24.608 19.924 44.556 44.502 44.556z" fill="#C4EB9B"/><path d="M529.346 545.292c14.16-14.176 14.16-37.161 0-51.338-14.159-14.177-37.116-14.177-51.276 0-14.16 14.177-14.16 37.162 0 51.338 14.16 14.177 37.117 14.177 51.276 0z" fill="#fff"/><path d="M386.933 416.02c27.36 0 49.54-22.206 49.54-49.6 0-27.393-22.18-49.6-49.54-49.6s-49.54 22.207-49.54 49.6c0 27.394 22.18 49.6 49.54 49.6z" fill="#C4EB9B"/><path d="M415.457 394.992c15.754-15.773 15.754-41.347 0-57.121-15.755-15.773-41.298-15.773-57.052 0-15.755 15.774-15.755 41.348 0 57.121 15.754 15.773 41.297 15.773 57.052 0z" fill="#fff"/><path d="M816.614 243.147c21.395 0 38.739-17.365 38.739-38.786 0-21.421-17.344-38.786-38.739-38.786-21.395 0-38.739 17.365-38.739 38.786 0 21.421 17.344 38.786 38.739 38.786z" fill="#C4EB9B"/><path d="M838.893 226.694c12.311-12.327 12.311-32.311 0-44.638-12.312-12.326-32.272-12.326-44.584 0-12.311 12.327-12.311 32.311 0 44.638 12.312 12.326 32.272 12.326 44.584 0z" fill="#fff"/><path d="M840.125 668.988c29.552 0 53.51-23.986 53.51-53.574 0-29.588-23.958-53.574-53.51-53.574-29.553 0-53.51 23.986-53.51 53.574 0 29.588 23.957 53.574 53.51 53.574z" fill="#C4EB9B"/><path d="M871.705 647.032c17.439-17.46 17.439-45.768 0-63.228-17.438-17.459-45.712-17.459-63.151 0-17.439 17.46-17.439 45.768 0 63.228 17.439 17.459 45.713 17.459 63.151 0z" fill="#fff"/><path d="M880.926 438.145c32.082 0 58.089-26.038 58.089-58.159 0-32.121-26.007-58.16-58.089-58.16-32.082 0-58.09 26.039-58.09 58.16 0 32.121 26.008 58.159 58.09 58.159z" fill="#FFEABF"/><path d="M914.371 413.501c18.482-18.504 18.482-48.506 0-67.01-18.482-18.504-48.448-18.504-66.93 0-18.482 18.504-18.482 48.506 0 67.01 18.482 18.504 48.448 18.504 66.93 0z" fill="#fff"/><path d="M880.925 355.912c-11.755 0-22.442 4.815-30.152 12.572l5.725 5.694a34.233 34.233 0 0124.427-10.203c9.542 0 18.167 3.898 24.427 10.203l5.725-5.694c-7.71-7.757-18.358-12.572-30.152-12.572z" fill="#FFEABF"/><path d="M858.178 376.89l5.725 5.694a23.912 23.912 0 0117.06-7.108c6.641 0 12.672 2.713 17.061 7.108l5.725-5.694c-5.84-5.885-13.893-9.515-22.786-9.515a31.857 31.857 0 00-22.785 9.515z" fill="#FFEABF"/><path d="M865.545 385.26l5.725 5.693c2.481-2.484 5.878-4.05 9.656-4.05 3.779 0 7.213 1.528 9.656 4.05l5.725-5.693a21.583 21.583 0 00-15.381-6.42 21.583 21.583 0 00-15.381 6.42z" fill="#FFEABF"/><path d="M880.926 404.098a6.835 6.835 0 006.831-6.84 6.835 6.835 0 00-6.831-6.84 6.836 6.836 0 00-6.832 6.84 6.836 6.836 0 006.832 6.84z" fill="#FFEABF"/><path d="M517.273 518.393h-7.366v-20.635h-12.366v20.635h-7.328l13.511 17.081 13.549-17.081zm1.984 17.769h-31.068v5.312h31.068v-5.312z" fill="#C4EB9B"/><path d="M558.035 240.586c22.513 0 40.762-18.272 40.762-40.811s-18.249-40.811-40.762-40.811c-22.512 0-40.762 18.272-40.762 40.811s18.25 40.811 40.762 40.811z" fill="#FFEABF"/><path d="M581.641 223.417c13.042-13.057 13.042-34.228 0-47.285-13.041-13.058-34.186-13.058-47.228 0-13.042 13.057-13.042 34.228 0 47.285 13.042 13.058 34.187 13.058 47.228 0z" fill="#fff"/><path d="M574.829 188.12h-33.625a2.722 2.722 0 00-2.71 2.713v19.489a2.722 2.722 0 002.71 2.713h33.625a2.722 2.722 0 002.71-2.713v-19.489c0-1.528-1.184-2.713-2.71-2.713zm-.382 21.781h-32.785v-18.647h32.785v18.647z" fill="#FFEABF"/><path d="M558.036 208.985a8.62 8.62 0 008.625-8.636 8.62 8.62 0 00-8.625-8.636 8.622 8.622 0 00-8.626 8.636 8.622 8.622 0 008.626 8.636zm0-14.368c3.168 0 5.763 2.599 5.763 5.77 0 3.172-2.595 5.77-5.763 5.77-3.168 0-5.763-2.598-5.763-5.77 0-3.21 2.595-5.77 5.763-5.77zm12.861-8.98h-4.771c-.992 0-1.794.802-1.794 1.796h8.359c.038-.994-.802-1.796-1.794-1.796zm-3.167 9.82h2.481c.61 0 1.107-.497 1.107-1.108v-.077c0-.611-.497-1.108-1.107-1.108h-2.481c-.611 0-1.107.497-1.107 1.108v.077c.038.649.496 1.108 1.107 1.108z" fill="#FFEABF"/><path d="M810.012 595.85v39.091h60.265V595.85h-60.265zm56.372 35.461h-52.518v-31.793h52.518v31.793z" fill="#C4EB9B"/><path d="M855.011 615.911l-7.137-11.005-6.45 9.668-6.069 9.095-3.588-4.318-5.572-6.726-2.633 4.318-6.947 11.311h46.449l-8.053-12.343z" fill="#C4EB9B"/><path opacity=".5" d="M855.009 615.912l-1.336 1.299-5.19-4.051-5.42 5.006-1.641-3.592 6.45-9.668 7.137 11.006z" fill="#C4EB9B"/><path opacity=".5" d="M831.766 619.35l-.992 1.108-3.206-3.859-2.824 2.407-1.183-2.063 2.633-4.318 5.572 6.725z" fill="url(#paint0_linear)"/><path d="M386.935 341.316c-13.855 0-25.076 11.235-25.076 25.106 0 13.871 11.221 25.106 25.076 25.106 13.854 0 25.075-11.235 25.075-25.106.039-13.871-11.221-25.106-25.075-25.106zm0 44.174c-10.534 0-19.045-8.521-19.045-19.068s8.511-19.068 19.045-19.068c10.534 0 19.045 8.521 19.045 19.068s-8.511 19.068-19.045 19.068z" fill="#C4EB9B"/><path d="M379.148 352.895v27.054l23.435-13.527-23.435-13.527zm449.566-168.404h-5.763v-1.338h-12.595v1.338h-5.802a2.681 2.681 0 00-2.671 2.675v34.391a2.681 2.681 0 002.671 2.675h24.16a2.658 2.658 0 002.672-2.675v-34.391a2.682 2.682 0 00-2.672-2.675zm.038 35.729h-24.236v-32.978h5.84v1.299h12.595v-1.299h5.801v32.978z" fill="#C4EB9B"/><path d="M824.706 191.216h-16.183v2.293h16.183v-2.293zm0 4.547h-16.183v2.292h16.183v-2.292zm0 4.586h-16.183v2.292h16.183v-2.292zm0 4.547h-16.183v2.293h16.183v-2.293z" fill="#C4EB9B"/><path d="M439.948 698.907s-6.908 40.888 14.236 33.36l4.122-37.372-18.358 4.012z" fill="url(#paint1_linear)"/><path d="M457.771 904.34h-27.632c.038-.993.419-4.356.992-5.12 1.03-1.414 2.71-2.217 4.389-2.79 1.679-.573 3.397-.955 4.962-1.796 3.549-1.91 5.649-3.859 4.962-7.833 3.053-1.72 7.289-2.179 10.801-1.796a42.513 42.513 0 001.526 19.335zm52.021-.002h-17.595c-.648-2.713.497-5.502 1.489-8.139.992-2.675 2.71-5.579 2.137-8.368 3.359-.192 6.069-.421 9.427-.306 3.168 4.967 4.771 10.929 4.542 16.813z" fill="#311649"/><path d="M442.086 892.531l14.77-.535 29.312-124.956.268 4.395 6.679 119.3 15.724-.574s13.397-130.687 14.084-147.768c.076-1.91.153-3.783.191-5.655 0 0-17.9-32.405-37.976-30.379-5.038.496-10.229 3.171-15.305 9.094-6.03 7.031-10.381 15.4-13.511 24.036-.038.153-.114.268-.153.42.306 12.534-14.083 152.622-14.083 152.622z" fill="#002A40"/><path d="M486.129 767.078l.267 4.395c.038-1.758-.038-3.249-.267-4.395z" fill="#311649"/><path d="M456.855 892.035l29.274-124.955-12.557-6.228-16.717 131.183z" fill="#000"/><path d="M546.318 699.482s-6.526 4.47-16.946 4.127c-2.404 20.902-6.221 37.906-6.297 38.365a87.928 87.928 0 01-33.51 6.649 87.93 87.93 0 01-33.511-6.649s-4.313-19.985-6.068-42.11c-6.221.114-10.038-.994-10.038-.994-1.031-30.226 12.595-34.85 18.931-35.347 3.091-.267 6.144-.726 9.198-1.299 3.473-.649 6.374-.955 8.435-1.146 2.213-.191 3.473-.153 3.473-.153l9.58 2.484 9.579-2.484s1.184 0 3.245.153c2.9.229 7.48.764 13.091 2.102 3.015.726 6.106 1.337 9.16 1.872 6.679 1.146 20.953 6.802 21.678 34.43z" fill="#005580"/><path d="M481.205 637.54c-.076-.459-.153-.879-.42-1.261-.229-.383-.687-.65-1.145-.535-.42.114-.687.496-.878.917-1.03 2.14-.878 4.814.42 6.802.573-1.949 2.366-3.975 2.023-5.923z" fill="#F17785"/><path d="M481.205 637.54c-.076-.459-.153-.879-.42-1.261-.229-.383-.687-.65-1.145-.535-.42.114-.687.496-.878.917-1.03 2.14-.878 4.814.42 6.802.573-1.949 2.366-3.975 2.023-5.923z" fill="url(#paint2_linear)"/><path d="M480.213 628.787c-.725 3.63-.115 7.528 1.755 10.776 1.26-3.401.458-7.91-1.755-10.776z" fill="#002A40"/><path fill-rule="evenodd" clip-rule="evenodd" d="M480.192 661.056c.463-.816.89-1.664 1.28-2.539.076-.152.143-.315.21-.477.067-.163.133-.325.21-.478a22.278 22.278 0 001.259-4.318c5.229-1.49 10.038-4.05 14.084-7.642a31.6 31.6 0 00.763 11.807v.077c.302 1.211.68 2.347 1.132 3.519l.014-.003c-.039-.039 1.145-.039 3.244.114a16.142 16.142 0 01-3.092 6.153c-2.595 3.133-6.412 5.158-10.457 5.579-3.97.382-8.206-.917-10.687-4.013-1.718-2.101-2.328-5.12-1.641-7.68 2.213-.192 3.473-.153 3.473-.153l.208.054z" fill="#F17785"/><path fill-rule="evenodd" clip-rule="evenodd" d="M480.192 661.056c.463-.816.89-1.664 1.28-2.539.076-.152.143-.315.21-.477.067-.163.133-.325.21-.478a22.278 22.278 0 001.259-4.318c5.229-1.49 10.038-4.05 14.084-7.642a31.6 31.6 0 00.763 11.807v.077c.302 1.211.68 2.347 1.132 3.519l.014-.003c-.039-.039 1.145-.039 3.244.114a16.142 16.142 0 01-3.092 6.153c-2.595 3.133-6.412 5.158-10.457 5.579-3.97.382-8.206-.917-10.687-4.013-1.718-2.101-2.328-5.12-1.641-7.68 2.213-.192 3.473-.153 3.473-.153l.208.054z" fill="url(#paint3_linear)"/><path d="M498.304 643.002c0 .229-.038.42-.038.65-.344 3.859-1.298 7.871-3.855 10.776-2.29 2.598-5.839 4.088-9.274 3.553-3.397-.496-6.489-3.133-7.29-6.496-.535-2.254-.077-4.662.687-6.84.763-2.216 1.755-4.318 2.366-6.572.611-2.255.992-5.312.038-7.452l.267-.191c4.809-3.21 10.458-4.165 15.84-1.987 1.183 4.777 1.641 9.706 1.259 14.559z" fill="#F17785"/><path d="M498.304 643.002c0 .229-.038.42-.038.65-.344 3.859-1.298 7.871-3.855 10.776-2.29 2.598-5.839 4.088-9.274 3.553-3.397-.496-6.489-3.133-7.29-6.496-.535-2.254-.077-4.662.687-6.84.763-2.216 1.755-4.318 2.366-6.572.611-2.255.992-5.312.038-7.452l.267-.191c4.809-3.21 10.458-4.165 15.84-1.987 1.183 4.777 1.641 9.706 1.259 14.559z" fill="url(#paint4_linear)"/><path d="M486.167 648.125a8.023 8.023 0 01-3.55-.344c-.267-.077-.496.114-.496.382.076.649.344 1.261.878 1.643.687.535 1.679.65 2.481.344.649-.229.878-.917 1.068-1.605.077-.229-.114-.459-.381-.42z" fill="#F9DEE4"/><path d="M546.472 712.474a98.95 98.95 0 01-1.642 12.649c-.076.382-.152.764-.228 1.108-.077.382-.153.726-.229 1.108-.153.726-.344 1.49-.497 2.216l-.419 1.911c-1.031 4.7-5.229 7.948-9.924 7.948-.42 0-.801-.038-1.221-.076a43.107 43.107 0 01-7.214-1.529c-2.29-.688-4.465-1.605-6.526-2.636a41.389 41.389 0 01-5.649-3.478 37.49 37.49 0 01-4.694-4.089l-.344-.343c-.191-.192-.496-.535-.687-.726-.343-.383-.687-.727-.992-1.109-.611-.726-1.222-1.452-1.756-2.216a35.014 35.014 0 01-2.824-4.356c-1.641-2.866-2.863-5.617-3.702-8.178a43.086 43.086 0 01-1.756-6.954 28.058 28.058 0 01-.382-5.35c.077-1.49.267-2.637.573-3.439.305-.803.725-1.3 1.259-1.414.535-.115 1.107.114 1.756.688.649.535 1.374 1.375 2.175 2.445.42.535.84 1.147 1.298 1.758.229.306.458.65.725.994.267.344.496.687.764 1.07 1.068 1.452 2.29 3.057 3.702 4.7 1.412 1.643 3.015 3.324 4.809 4.891.916.764 1.87 1.528 2.9 2.254.497.383 1.031.688 1.527.994l.802.459.381.229.42.191c.725.382 1.45.688 2.214.993-.077-.917-.115-1.834-.191-2.751-.076-.841-.153-1.643-.229-2.484a51.77 51.77 0 00-.267-2.407c-.077-.803-.153-1.567-.229-2.369l-.229-2.293c-.038-.344-.077-.65-.115-.994 15.878 4.815 26.564-2.522 26.564-2.522.038.344.077.726.077 1.07.267 3.936.229 7.91 0 12.037z" fill="#F17785"/><path d="M546.472 712.474a98.95 98.95 0 01-1.642 12.649c-.076.382-.152.764-.228 1.108-.077.382-.153.726-.229 1.108-.153.726-.344 1.49-.497 2.216l-.419 1.911c-1.031 4.7-5.229 7.948-9.924 7.948-.42 0-.801-.038-1.221-.076a43.107 43.107 0 01-7.214-1.529c-2.29-.688-4.465-1.605-6.526-2.636a41.389 41.389 0 01-5.649-3.478 37.49 37.49 0 01-4.694-4.089l-.344-.343c-.191-.192-.496-.535-.687-.726-.343-.383-.687-.727-.992-1.109-.611-.726-1.222-1.452-1.756-2.216a35.014 35.014 0 01-2.824-4.356c-1.641-2.866-2.863-5.617-3.702-8.178a43.086 43.086 0 01-1.756-6.954 28.058 28.058 0 01-.382-5.35c.077-1.49.267-2.637.573-3.439.305-.803.725-1.3 1.259-1.414.535-.115 1.107.114 1.756.688.649.535 1.374 1.375 2.175 2.445.42.535.84 1.147 1.298 1.758.229.306.458.65.725.994.267.344.496.687.764 1.07 1.068 1.452 2.29 3.057 3.702 4.7 1.412 1.643 3.015 3.324 4.809 4.891.916.764 1.87 1.528 2.9 2.254.497.383 1.031.688 1.527.994l.802.459.381.229.42.191c.725.382 1.45.688 2.214.993-.077-.917-.115-1.834-.191-2.751-.076-.841-.153-1.643-.229-2.484a51.77 51.77 0 00-.267-2.407c-.077-.803-.153-1.567-.229-2.369l-.229-2.293c-.038-.344-.077-.65-.115-.994 15.878 4.815 26.564-2.522 26.564-2.522.038.344.077.726.077 1.07.267 3.936.229 7.91 0 12.037z" fill="url(#paint5_linear)"/><path d="M499.78 724.74h-18.863c-.683 0-1.276-1.337-1.351-3.095l-1.469-29.806c-.104-2.101.534-3.974 1.351-3.974h18.877c.683 0 1.277 1.338 1.351 3.095l1.469 29.806c.104 2.102-.534 3.974-1.365 3.974z" fill="#fff"/><path d="M502.464 703.532c1.26-2.981.267-6.688-2.137-8.866-2.405-2.178-5.954-2.866-9.084-2.101-1.527.382-3.053 1.108-3.893 2.445-.954 1.491-.801 3.401-.649 5.197.191 2.255.496 4.738 2.176 6.305 1.221 1.147 3.015 1.567 4.732 1.452 1.68-.114 3.321-.688 4.924-1.223 1.336-.535 3.359-1.834 3.931-3.209z" fill="#F17785"/><path d="M502.464 703.532c1.26-2.981.267-6.688-2.137-8.866-2.405-2.178-5.954-2.866-9.084-2.101-1.527.382-3.053 1.108-3.893 2.445-.954 1.491-.801 3.401-.649 5.197.191 2.255.496 4.738 2.176 6.305 1.221 1.147 3.015 1.567 4.732 1.452 1.68-.114 3.321-.688 4.924-1.223 1.336-.535 3.359-1.834 3.931-3.209z" fill="url(#paint6_linear)"/><path d="M443.434 737.96c-1.641-2.751-1.756-6.381-.496-8.674 1.259-2.293 3.74-3.248 6.259-2.789 1.221.229 2.519.802 3.473 2.025 1.069 1.376 1.412 3.21 1.718 4.929.381 2.178.725 4.586-.115 6.229-.649 1.223-1.87 1.758-3.168 1.796-1.297.038-2.633-.382-3.931-.803-1.183-.343-2.977-1.452-3.74-2.713z" fill="#F17785"/><path d="M443.434 737.96c-1.641-2.751-1.756-6.381-.496-8.674 1.259-2.293 3.74-3.248 6.259-2.789 1.221.229 2.519.802 3.473 2.025 1.069 1.376 1.412 3.21 1.718 4.929.381 2.178.725 4.586-.115 6.229-.649 1.223-1.87 1.758-3.168 1.796-1.297.038-2.633-.382-3.931-.803-1.183-.343-2.977-1.452-3.74-2.713z" fill="url(#paint7_linear)"/><path d="M498.342 640.519c-1.756-1.07-2.786-3.095-3.206-5.12-.42-2.026-.191-4.127-.038-6.191-2.519 1.185-5.076 2.255-7.824 2.522-2.748.306-5.649-.114-8.015-1.528-2.367-1.414-4.199-3.936-4.39-6.687-.229-2.752 1.374-5.694 3.932-6.726 2.595-1.032 5.534-.076 8.053 1.108 2.519 1.223 5.038 2.713 7.824 2.866 1.45.077 2.977-.229 4.275.421 1.793.878 2.366 3.171 2.519 5.196.305 4.853-.687 9.936-3.13 14.139z" fill="#002A40"/><path d="M497.885 639.487a3.75 3.75 0 01.535-2.484c.305-.497.801-.917 1.335-1.07 1.031-.268 2.138.497 2.558 1.49.419.994.343 2.102.152 3.172-.152.802-.343 1.643-.725 2.369-.42.726-1.03 1.337-1.794 1.605-.801.267-1.717.115-2.29-.497.229-1.567.42-3.057.229-4.585z" fill="#F17785"/><path d="M497.885 639.487a3.75 3.75 0 01.535-2.484c.305-.497.801-.917 1.335-1.07 1.031-.268 2.138.497 2.558 1.49.419.994.343 2.102.152 3.172-.152.802-.343 1.643-.725 2.369-.42.726-1.03 1.337-1.794 1.605-.801.267-1.717.115-2.29-.497.229-1.567.42-3.057.229-4.585z" fill="url(#paint8_linear)"/><path d="M828.904 856.65a27.122 27.122 0 01-.687 4.777c-.725 3.172-3.588 5.426-6.87 5.426-2.328-.076-6.794-.114-12.137-.114-3.397 0-7.137 0-10.916.038-4.16 0-8.358.038-12.137.076-8.206.077-14.541.153-14.541.153s-3.092-.038-7.748-.076c-2.023 0-4.313-.039-6.794-.077-12.671-.076-29.77-.191-35.19 0a7.118 7.118 0 01-4.389-1.528c-1.221-.956-2.099-2.331-2.481-3.898-.381-1.567-.572-3.248-.687-4.777a22.965 22.965 0 010-2.292c.268-4.892 8.55-34.697 11.107-39.245.801-1.414 1.603-2.827 2.481-4.203 3.664-5.808 8.282-11.12 14.083-14.788 2.634-1.682 5.458-2.981 8.397-4.013-.954-1.337-1.565-2.866-1.565-4.509 0-3.095 2.176-5.885 4.847-7.451 2.672-1.567 5.802-2.178 8.855-2.713 2.634-.459 6.183-.918 9.046-.383 2.862-.535 6.412-.076 9.045.383 3.053.535 6.183 1.146 8.855 2.713 2.671 1.566 4.847 4.356 4.847 7.451 0 1.643-.611 3.172-1.565 4.509 2.939 1.032 5.763 2.331 8.397 4.013 5.801 3.668 10.419 8.98 14.083 14.788a75.68 75.68 0 012.481 4.203c.534.956 1.26 2.943 2.099 5.465 3.168 9.515 7.748 27.016 8.359 29.691.305 1.337.534 2.713.61 4.127.153.611.153 1.414.115 2.254z" fill="#FF4646"/><path d="M759.096 778.621c-1.297-.344-2.328-1.299-2.977-2.445-.649-1.147-.954-2.446-1.183-3.745a37.945 37.945 0 01.801-16.814c.955-3.439 2.672-7.069 6.031-8.407.038-1.834 1.336-3.439 2.824-4.547 3.435-2.56 8.282-2.828 12.252-1.223 3.969 1.605 7.099 4.891 9.045 8.636 1.947 3.745 2.863 7.987 3.282 12.152.382 3.668.382 7.49-1.183 10.852-1.526 3.363-4.961 6.076-8.702 5.847-6.984-.421-13.434 1.375-20.19-.306z" fill="#002A40"/><path d="M785.47 790.008s-9.694 28.43-3.435 47.116h-20.877c6.259-18.724-3.435-47.116-3.435-47.116.229-.267.458-.573.687-.841 2.862-3.095 7.671-5.12 13.167-5.12 5.42 0 10.191 1.949 13.053 4.968.344.305.611.649.84.993h-.038.038z" fill="#fff"/><path fill-rule="evenodd" clip-rule="evenodd" d="M779.78 785.858c1.848 1.144 2.981 2.686 2.981 4.379 0 3.516-4.885 11.655-10.916 11.655-6.03 0-10.915-8.101-10.915-11.655 0-1.348.718-2.601 1.945-3.634.114-1.74.138-3.486.078-5.231a59.996 59.996 0 00-.649-6.917c2.412.489 4.825.881 7.237 1.272l1.808.295a354.07 354.07 0 012.261-.363c2.262-.358 4.523-.717 6.785-1.204a53.494 53.494 0 00-.615 11.403z" fill="#F68895"/><path fill-rule="evenodd" clip-rule="evenodd" d="M779.78 785.858c1.848 1.144 2.981 2.686 2.981 4.379 0 3.516-4.885 11.655-10.916 11.655-6.03 0-10.915-8.101-10.915-11.655 0-1.348.718-2.601 1.945-3.634.114-1.74.138-3.486.078-5.231a59.996 59.996 0 00-.649-6.917c2.412.489 4.825.881 7.237 1.272l1.808.295a354.07 354.07 0 012.261-.363c2.262-.358 4.523-.717 6.785-1.204a53.494 53.494 0 00-.615 11.403z" fill="url(#paint9_linear)"/><path d="M781.387 776.825c-1.069 3.974-4.733 7.146-8.817 7.605-4.084.458-8.358-1.797-10.305-5.427-1.946-3.706-1.526-8.177-.801-12.304.572-3.248 1.297-6.611 1.03-9.859a8.86 8.86 0 001.985-2.981c4.733 3.287 10.305 5.274 16.03 5.656-.076 1.949 0 3.936.267 5.885.496 3.821 1.603 7.719.611 11.425z" fill="#F68895"/><path d="M781.387 776.825c-1.069 3.974-4.733 7.146-8.817 7.605-4.084.458-8.358-1.797-10.305-5.427-1.946-3.706-1.526-8.177-.801-12.304.572-3.248 1.297-6.611 1.03-9.859a8.86 8.86 0 001.985-2.981c4.733 3.287 10.305 5.274 16.03 5.656-.076 1.949 0 3.936.267 5.885.496 3.821 1.603 7.719.611 11.425z" fill="url(#paint10_linear)"/><path d="M780.393 766.585c.076-.612.153-1.261.42-1.796.267-.535.763-.956 1.336-.917.534.038.992.535 1.336 1.031.763 1.3.916 3.019.419 4.395-.534 1.414-1.717 2.445-3.015 2.636-.229-1.796-.687-3.553-.496-5.349z" fill="#F68895"/><path d="M780.393 766.585c.076-.612.153-1.261.42-1.796.267-.535.763-.956 1.336-.917.534.038.992.535 1.336 1.031.763 1.3.916 3.019.419 4.395-.534 1.414-1.717 2.445-3.015 2.636-.229-1.796-.687-3.553-.496-5.349z" fill="url(#paint11_linear)"/><path d="M762.265 766.585c-.076-.612-.153-1.261-.42-1.796-.267-.535-.763-.956-1.336-.917-.534.038-.992.535-1.336 1.031-.763 1.3-.916 3.019-.419 4.395.534 1.414 1.717 2.445 3.015 2.636.229-1.796.725-3.553.496-5.349z" fill="#F68895"/><path d="M762.265 766.585c-.076-.612-.153-1.261-.42-1.796-.267-.535-.763-.956-1.336-.917-.534.038-.992.535-1.336 1.031-.763 1.3-.916 3.019-.419 4.395.534 1.414 1.717 2.445 3.015 2.636.229-1.796.725-3.553.496-5.349z" fill="url(#paint12_linear)"/><path d="M773.333 775.336c.42 0 .725.382.611.802a2.716 2.716 0 01-2.596 1.911 2.714 2.714 0 01-2.595-1.911c-.115-.382.191-.802.61-.802h3.97z" fill="#EFEFEF"/><path d="M828.216 861.388c-.725 3.172-3.587 5.427-6.87 5.427-2.328-.077-6.793-.115-12.137-.115-7.137 0-15.801.038-23.052.115-8.206.076-14.542.114-14.542.114s-3.091-.038-7.748-.076a689.485 689.485 0 01-.076-8.827 6861.51 6861.51 0 0021.106-7.031c7.901-2.637 15.916-5.274 24.236-5.618 6.679-.267 13.625 1.147 19.121 4.777.306 1.337.535 2.713.611 4.127.153 1.949-.076 4.662-.649 7.107z" fill="#FB446C"/><path d="M715.052 861.388c.726 3.172 3.588 5.427 6.87 5.427 2.329-.077 6.794-.115 12.137-.115 7.138 0 15.801.038 23.053.115 8.206.076 14.541.114 14.541.114s3.092-.038 7.748-.076c.038-2.942.077-5.923.077-8.827a6861.9 6861.9 0 01-21.107-7.031c-7.9-2.637-15.915-5.274-24.235-5.618-6.679-.267-13.626 1.147-19.122 4.777-.305 1.337-.534 2.713-.61 4.127-.153 1.949.076 4.662.648 7.107z" fill="#FB446C"/><path d="M738.258 819.316h66.716a3.488 3.488 0 013.473 3.478v40.696a3.488 3.488 0 01-3.473 3.478h-66.716a3.488 3.488 0 01-3.473-3.478v-40.696c.038-1.911 1.565-3.478 3.473-3.478z" fill="#EFF3F9"/><path d="M777.721 840.562h-12.213v5.121h12.213v-5.121z" fill="#DDE8FA"/><path d="M728.219 849.391s42.899 38.441 83.661.535l-36.793 39.703-46.868-40.238z" fill="#002A40"/><path d="M790.355 903.5c-1.756.153-3.244-1.796-3.015-3.554.191-1.758 1.679-3.172 3.32-3.86 1.641-.687 3.473-.764 5.229-.84 4.466-.153 8.893-.344 13.358-.497 1.832-.076 3.741-.115 5.458.497 4.008 1.414 6.031 6.687 4.046 10.432-1.985 3.745-7.557 4.929-10.916 2.369-4.542-3.477-12.328-2.102-17.48-4.547z" fill="#000"/><path d="M796.767 905.677c-2.519 1.185-5.496 1.3-8.32 1.376-14.351.306-28.816 0-42.938-2.56-12.671-2.331-25.113-6.573-35.647-13.413-1.184-.764-2.329-1.567-3.474-2.369-7.595-5.579-14.121-12.992-16.03-21.743-1.87-8.483 1.451-16.661 8.435-22.278 6.756-5.465 20.381.497 27.289 3.706 6.527 3.058 12.595 6.917 18.511 10.891 1.298.879 2.596 1.758 3.855 2.637 10.114 6.878 20.228 13.795 30.343 20.673 5.839 3.974 11.679 7.948 17.48 11.922 1.87 1.261 3.893 2.713 4.389 4.815.611 2.522-1.374 5.159-3.893 6.343z" fill="#005580"/><path d="M796.767 905.678c-2.519 1.185-5.496 1.299-8.32 1.376-14.351.306-28.816 0-42.938-2.56-12.671-2.331-25.114-6.573-35.648-13.413a56.814 56.814 0 0018.511.65c5.954-.765 11.908-2.561 16.488-6.114 4.618-3.554 7.672-9.095 6.985-14.598-.573-4.623-3.55-8.521-7.29-11.769 1.298.879 2.595 1.758 3.855 2.637 10.114 6.878 20.228 13.794 30.342 20.673 5.84 3.974 11.679 7.948 17.481 11.922 1.87 1.261 3.893 2.713 4.389 4.815.649 2.56-1.336 5.197-3.855 6.381z" fill="#002A40"/><path d="M748.905 896.66c1.642-.65 3.626.802 3.932 2.56.305 1.758-.687 3.516-2.061 4.662-1.374 1.108-3.092 1.72-4.809 2.293-4.237 1.452-8.435 2.866-12.672 4.318-1.755.573-3.549 1.185-5.381 1.108-4.237-.191-7.71-4.7-6.832-8.827.84-4.165 5.801-6.878 9.771-5.388 5.381 1.911 12.404-1.643 18.052-.726z" fill="#000"/><path d="M850.811 866.932c-1.909 8.789-8.435 16.164-16.03 21.743-11.221 8.254-24.999 13.221-39.121 15.782-14.083 2.56-28.549 2.866-42.937 2.56-2.825-.038-5.802-.153-8.321-1.376-1.984-.955-3.626-2.751-3.969-4.738-.076-.535-.076-1.108.076-1.643.496-2.102 2.519-3.554 4.389-4.815 5.84-3.974 11.679-7.948 17.481-11.922 10.114-6.879 20.228-13.795 30.342-20.674 3.321-2.254 6.641-4.547 10.076-6.687 3.97-2.484 8.015-4.853 12.29-6.84 6.908-3.21 20.495-9.171 27.289-3.706 6.985 5.655 10.305 13.833 8.435 22.316z" fill="#005580"/><path d="M850.811 866.931c-1.908 8.789-8.434 16.164-16.03 21.743-11.221 8.254-24.999 13.221-39.12 15.782-14.084 2.56-28.549 2.866-42.938 2.56-2.824-.038-5.801-.153-8.32-1.376-1.985-.955-3.626-2.751-3.969-4.738 26.029 5.082 54.005 1.414 77.401-10.279 7.176-3.592 14.16-8.101 18.091-14.712 3.932-6.573 4.046-15.591-1.641-20.979-4.542-4.318-11.755-5.464-18.205-4.394-4.695.764-9.046 2.56-13.32 4.585 3.969-2.484 8.015-4.853 12.289-6.84 6.908-3.21 20.496-9.171 27.289-3.706 7.023 5.693 10.344 13.871 8.473 22.354z" fill="#002A40"/><path d="M953.746 586.756c-.877-2.255-.343-5.044 1.374-6.764 1.222 1.185 2.596 2.293 3.817 3.477-1.794 1.223-3.359 1.987-5.191 3.287zm73.474 13.144a4.773 4.773 0 002.4-2.828 4.67 4.67 0 00-.42-3.707c-1.64.268-3.47.956-4.84 1.911.57 1.758 1.75 3.133 2.86 4.624z" fill="#F68895"/><path d="M986.264 886.457c3.282 5.159 4.923 10.088 4.733 16.164-6.145.535-12.328.765-18.473.191-.763-2.866.458-4.585 1.488-7.375 1.031-2.789 2.138-5.732 1.527-8.636 3.473-.191 7.252-.458 10.725-.344zm-37.899-2.981a41.823 41.823 0 00.916 19.182c-8.626 1.911-17.633 2.179-26.373 1.07-1.107-1.337-.649-3.553.42-4.929 1.068-1.337 2.709-2.102 4.351-2.599 1.641-.496 3.358-.84 4.885-1.604 3.511-1.758 5.725-5.885 5.191-9.783 3.091-1.567 7.213-1.872 10.61-1.337z" fill="#002A40"/><path d="M985.996 887.45c-2.977.306-5.992.573-9.045.764a3.751 3.751 0 01-3.817-2.637c-4.694-15.552-11.297-45.129-15.877-97.403-.649-7.49-1.298-15.438-1.832-23.845a459.733 459.733 0 00-3.359 23.921c-3.053 26.481-4.694 59.917-1.259 96.257a3.689 3.689 0 01-2.214 3.745 3.468 3.468 0 01-1.679.306c-3.168-.153-6.26-.306-9.351-.573a3.772 3.772 0 01-3.397-3.172c-2.786-19.03-6.298-53.001-4.275-95.149.267-5.159.573-10.394.993-15.744.381-4.967.877-10.05 1.412-15.208.076-.765.191-1.567.267-2.37.038-.344.076-.649.114-.993.229-1.911.459-3.821.726-5.77.229-1.949.496-3.936.801-5.885.42-3.057.878-6.152 1.412-9.247.038-.344.115-.688.153-1.032.153-1.07.344-2.14.534-3.21.039-.191.077-.344.077-.535.114-.764.267-1.49.381-2.255l18.511-.382 28.434-.611c-.267 1.949-.61 4.7-.916 8.177-.076.726-.114 1.529-.19 2.331 0 .153-.039.306-.039.459a116.57 116.57 0 00-.305 4.203c-.038.344-.038.65-.076.994-.038.458-.077.917-.077 1.414-.19 3.133-.343 6.61-.458 10.47a90.583 90.583 0 00-.076 3.286 681.315 681.315 0 00-.153 9.401v7.871c.039 4.395.115 9.095.268 14.101.687 24.036 2.824 55.179 7.747 94.194.115 2.025-1.374 3.898-3.435 4.127z" fill="#fff"/><path d="M983.63 726.385c-.267 1.949-.61 4.7-.915 8.177-.077.726-.115 1.529-.191 2.331 0 .153-.039.306-.039.459a114.323 114.323 0 00-.305 4.203c-.038.344-.038.65-.076.994-.038.458-.076.917-.076 1.414-.191 3.133-.344 6.61-.458 10.47a88.313 88.313 0 00-.077 3.286 681.42 681.42 0 00-.153 9.4c-10.839-19.488-36.716-30.455-45.57-33.741.152-1.07.343-2.14.534-3.21.038-.191.076-.344.076-.535.115-.764.267-1.49.382-2.255l18.511-.382 28.357-.611zm-35.073 161.829a3.74 3.74 0 002.213-3.783c-3.435-36.302-1.794-69.777 1.26-96.258a457.587 457.587 0 013.359-23.921l-8.054-2.025c.039.038-8.969 74.132 1.222 125.987z" fill="#EFF3F9"/><path d="M1036.49 654.276l-3.32 3.133a89.835 89.835 0 01-8.13 6.993c-.15.115-.3.23-.46.344a75.508 75.508 0 01-8.74 5.77 64.851 64.851 0 01-8.51 4.013c-2.74 1.031-5.42 1.796-7.859 2.216-1.221.229-2.405.42-3.55.497-1.145.076-2.213.114-3.244.076-1.03-.038-1.984-.114-2.9-.305a14.72 14.72 0 01-2.481-.65c-1.527-.497-2.748-1.261-3.664-2.14a6.083 6.083 0 01-1.756-3.057c-.267-1.146-.153-2.331.229-3.516.382-1.184 1.107-2.369 2.061-3.553a22.65 22.65 0 011.641-1.72 22.602 22.602 0 012.023-1.681c.725-.535 1.527-1.108 2.366-1.605.84-.535 1.756-1.07 2.71-1.567a76.196 76.196 0 016.336-3.057c1.028-.459 2.098-.917 3.208-1.376 1.37-.573 2.78-1.108 4.23-1.719 2.64-1.07 5.46-2.102 8.4-3.286 2.02-.803 4.16-1.644 6.3-2.561.42-3.63.69-7.184.91-10.623.23-3.515.35-6.878.42-10.126.04-3.248.08-6.343 0-9.248 0-.726-.03-1.452-.03-2.14-.04-.687-.04-1.413-.08-2.063-.04-1.376-.11-2.675-.15-3.898-.04-1.261-.12-2.445-.19-3.592-.04-1.146-.12-2.216-.19-3.21-.08-1.834-.2-3.477-.23-4.814 1.75.343 3.47.649 5.15.993.34.764.72 1.567 1.07 2.446.42.955.84 1.987 1.22 3.095.42 1.108.84 2.293 1.26 3.516.42 1.261.84 2.56 1.22 3.935.19.688.38 1.414.61 2.102.19.726.38 1.452.57 2.216.77 3.019 1.45 6.267 2.06 9.706.58 3.44 1.07 7.108 1.38 10.929.3 3.822.49 7.796.42 11.884 0 .421 0 .841-.04 1.261 0 .421-.04.841-.04 1.262-.04.84-.07 1.681-.11 2.483l-.12 2.637z" fill="#F68895"/><path d="M1036.49 654.276l-3.32 3.133a89.835 89.835 0 01-8.13 6.993c-.15.115-.3.23-.46.344a75.508 75.508 0 01-8.74 5.77 64.851 64.851 0 01-8.51 4.013c-2.74 1.031-5.42 1.796-7.859 2.216-1.221.229-2.405.42-3.55.497-1.145.076-2.213.114-3.244.076-1.03-.038-1.984-.114-2.9-.305a14.72 14.72 0 01-2.481-.65c-1.527-.497-2.748-1.261-3.664-2.14a6.083 6.083 0 01-1.756-3.057c-.267-1.146-.153-2.331.229-3.516.382-1.184 1.107-2.369 2.061-3.553a22.65 22.65 0 011.641-1.72 22.602 22.602 0 012.023-1.681c.725-.535 1.527-1.108 2.366-1.605.84-.535 1.756-1.07 2.71-1.567a76.196 76.196 0 016.336-3.057c1.028-.459 2.098-.917 3.208-1.376 1.37-.573 2.78-1.108 4.23-1.719 2.64-1.07 5.46-2.102 8.4-3.286 2.02-.803 4.16-1.644 6.3-2.561.42-3.63.69-7.184.91-10.623.23-3.515.35-6.878.42-10.126.04-3.248.08-6.343 0-9.248 0-.726-.03-1.452-.03-2.14-.04-.687-.04-1.413-.08-2.063-.04-1.376-.11-2.675-.15-3.898-.04-1.261-.12-2.445-.19-3.592-.04-1.146-.12-2.216-.19-3.21-.08-1.834-.2-3.477-.23-4.814 1.75.343 3.47.649 5.15.993.34.764.72 1.567 1.07 2.446.42.955.84 1.987 1.22 3.095.42 1.108.84 2.293 1.26 3.516.42 1.261.84 2.56 1.22 3.935.19.688.38 1.414.61 2.102.19.726.38 1.452.57 2.216.77 3.019 1.45 6.267 2.06 9.706.58 3.44 1.07 7.108 1.38 10.929.3 3.822.49 7.796.42 11.884 0 .421 0 .841-.04 1.261 0 .421-.04.841-.04 1.262-.04.84-.07 1.681-.11 2.483l-.12 2.637z" fill="url(#paint13_linear)"/><path d="M952.565 663.065c-.42 1.07-1.069 2.025-1.909 2.751a6.132 6.132 0 01-3.015 1.414c-1.145.191-2.442.115-3.778-.305-.687-.192-1.374-.497-2.099-.841-.726-.344-1.413-.803-2.138-1.338-1.45-1.031-2.939-2.369-4.351-4.012-1.45-1.643-2.862-3.592-4.16-5.77-.649-1.108-1.336-2.255-1.908-3.477-.649-1.223-1.222-2.484-1.794-3.822a90.119 90.119 0 01-2.595-6.916c-.191-.535-.344-1.108-.535-1.643-.229-.765-.42-1.529-.649-2.293-.229-.764-.419-1.567-.61-2.369-.382-1.567-.725-3.21-1.107-4.853l-.878-4.013 1.374-2.139c.763-1.147 1.489-2.293 2.252-3.478.382-.573.763-1.146 1.183-1.758.382-.573.802-1.184 1.221-1.757 1.107-1.529 2.176-3.057 3.283-4.509 1.068-1.452 2.213-2.866 3.282-4.28 2.214-2.752 4.351-5.388 6.45-7.796 1.031-1.222 2.099-2.407 3.092-3.515.992-1.147 2.023-2.217 2.977-3.248a159.34 159.34 0 015.534-5.656 111.265 111.265 0 014.771-4.432 44.51 44.51 0 013.626-2.905l3.664 1.262c-.191.343-.42.726-.649 1.146-.687 1.146-1.603 2.484-2.595 4.05a1080.712 1080.712 0 00-3.512 5.236c-.649.993-1.298 1.987-1.985 3.057a182.559 182.559 0 00-2.099 3.362c-1.412 2.331-2.9 4.853-4.351 7.528a177.59 177.59 0 00-4.313 8.522 127.266 127.266 0 00-2.099 4.585c-.343.764-.687 1.567-1.03 2.369-.344.803-.649 1.605-.993 2.408a36.313 36.313 0 00-.725 1.834c-.191.458-.381.955-.572 1.414l.801 1.719c.306.65.611 1.261.878 1.873l.916 1.834c1.183 2.407 2.443 4.662 3.55 6.802.725 1.337 1.412 2.598 2.061 3.821.419.764.801 1.49 1.145 2.178.496.955.954 1.834 1.412 2.751.458.879.839 1.758 1.183 2.599.725 1.681 1.298 3.248 1.717 4.738.191.726.344 1.491.458 2.178.115.688.153 1.376.153 2.026.076 1.414-.076 2.598-.534 3.668z" fill="#F68895"/><path d="M952.565 663.065c-.42 1.07-1.069 2.025-1.909 2.751a6.132 6.132 0 01-3.015 1.414c-1.145.191-2.442.115-3.778-.305-.687-.192-1.374-.497-2.099-.841-.726-.344-1.413-.803-2.138-1.338-1.45-1.031-2.939-2.369-4.351-4.012-1.45-1.643-2.862-3.592-4.16-5.77-.649-1.108-1.336-2.255-1.908-3.477-.649-1.223-1.222-2.484-1.794-3.822a90.119 90.119 0 01-2.595-6.916c-.191-.535-.344-1.108-.535-1.643-.229-.765-.42-1.529-.649-2.293-.229-.764-.419-1.567-.61-2.369-.382-1.567-.725-3.21-1.107-4.853l-.878-4.013 1.374-2.139c.763-1.147 1.489-2.293 2.252-3.478.382-.573.763-1.146 1.183-1.758.382-.573.802-1.184 1.221-1.757 1.107-1.529 2.176-3.057 3.283-4.509 1.068-1.452 2.213-2.866 3.282-4.28 2.214-2.752 4.351-5.388 6.45-7.796 1.031-1.222 2.099-2.407 3.092-3.515.992-1.147 2.023-2.217 2.977-3.248a159.34 159.34 0 015.534-5.656 111.265 111.265 0 014.771-4.432 44.51 44.51 0 013.626-2.905l3.664 1.262c-.191.343-.42.726-.649 1.146-.687 1.146-1.603 2.484-2.595 4.05a1080.712 1080.712 0 00-3.512 5.236c-.649.993-1.298 1.987-1.985 3.057a182.559 182.559 0 00-2.099 3.362c-1.412 2.331-2.9 4.853-4.351 7.528a177.59 177.59 0 00-4.313 8.522 127.266 127.266 0 00-2.099 4.585c-.343.764-.687 1.567-1.03 2.369-.344.803-.649 1.605-.993 2.408a36.313 36.313 0 00-.725 1.834c-.191.458-.381.955-.572 1.414l.801 1.719c.306.65.611 1.261.878 1.873l.916 1.834c1.183 2.407 2.443 4.662 3.55 6.802.725 1.337 1.412 2.598 2.061 3.821.419.764.801 1.49 1.145 2.178.496.955.954 1.834 1.412 2.751.458.879.839 1.758 1.183 2.599.725 1.681 1.298 3.248 1.717 4.738.191.726.344 1.491.458 2.178.115.688.153 1.376.153 2.026.076 1.414-.076 2.598-.534 3.668z" fill="url(#paint14_linear)"/><path d="M975.846 660.122l-1.184-.993-.152 3.324 1.336-2.331z" fill="#371A4F"/><path d="M978.402 649.844c-1.641 5.846-3.321 11.655-4.962 17.501-4.465-.611-8.74-1.146-13.206-1.758.153-1.528.153-3.057.306-4.585 2.977.076 5.839-1.185 8.282-2.981 2.442-1.758 4.427-4.012 6.412-6.267.839-.955 2.29-.955 3.168-1.91z" fill="#F68895"/><path d="M978.402 649.844c-1.641 5.846-3.321 11.655-4.962 17.501-4.465-.611-8.74-1.146-13.206-1.758.153-1.528.153-3.057.306-4.585 2.977.076 5.839-1.185 8.282-2.981 2.442-1.758 4.427-4.012 6.412-6.267.839-.955 2.29-.955 3.168-1.91z" fill="url(#paint15_linear)"/><path d="M1008.63 674.338c0 .459-.04.879-.08 1.338h-.03c-33.057 4.891-23.973 62.287-23.973 62.287-37.251 3.248-48.319-9.019-48.624-9.324 2.519-19.183 5.305-37.716 1.297-56.708-2.175-9.056-8.091-17.845-8.091-17.845.305-.421.611-.841.954-1.223 6.107-7.299 16.03-8.827 17.709-9.018.153-.038.229-.038.229-.038l4.008 5.617 1.488 2.102 4.161 5.884 1.145 1.567.343.497c1.641.267 3.244.649 4.847 1.07a45.56 45.56 0 014.428 1.375c.038.039.114.039.152.077.153.038.306.114.458.153 1.603.535 3.168 1.07 4.733 1.566l.649-.191 1.068-.344.878-.344 24.351-9.744s.23.306.61.803c2.02 2.522 7.67 10.967 7.29 20.443z" fill="#0AF"/><path d="M962.83 640.366c-1.87-4.662-1.298-10.165 1.412-14.368 1.374 1.07 2.824 2.407 3.206 4.127.42 1.872-.611 3.707-1.565 5.35-.992 1.643-2.061 3.21-3.053 4.891z" fill="#002A40"/><path d="M975.846 660.124c-.916 1.376-2.748 1.758-4.427 1.873-3.741.267-7.519 0-11.145-.879a.29.29 0 01.076.153c-2.137-.841-4.236-2.102-5.801-3.63-.992 3.362-.191 7.069 1.946 9.858.84-2.178 2.443-4.088 4.466-5.273a20.517 20.517 0 012.672 8.445c5.381-.573 10.419-3.898 13.243-8.56-.267-.687-.801-1.299-1.03-1.987z" fill="#DDE8FA"/><path d="M965.122 630.087a32.194 32.194 0 01-6.603 13.145c-2.099 2.522-4.733 5.006-4.962 8.292-.267 3.859 3.206 7.26 7.023 7.91 3.817.649 7.672-.955 10.801-3.21 6.565-4.7 10.763-12.572 11.03-20.635-3.664-5.579-10.992-7.642-17.289-5.502z" fill="#F68895"/><path d="M965.122 630.087a32.194 32.194 0 01-6.603 13.145c-2.099 2.522-4.733 5.006-4.962 8.292-.267 3.859 3.206 7.26 7.023 7.91 3.817.649 7.672-.955 10.801-3.21 6.565-4.7 10.763-12.572 11.03-20.635-3.664-5.579-10.992-7.642-17.289-5.502z" fill="url(#paint16_linear)"/><path d="M977.524 643.922c.229 2.102-1.031 4.203-2.787 5.35-1.755 1.146-3.969 1.49-6.106 1.299-4.351-.344-8.473-2.751-10.916-6.382-2.023 1.032-3.74 2.331-5.038 4.204-1.298 1.872-1.985 4.203-1.679 6.419.343 2.293 1.717 4.319 3.511 5.809 2.481 2.063 5.763 3.095 8.969 2.866 3.206-.23 6.298-1.758 8.435-4.165 3.092-3.478 4.122-8.484 7.443-11.732-.726-1.07-1.489-2.407-1.832-3.668z" fill="#002A40"/><path d="M963.861 650.8a9.088 9.088 0 01-3.397-1.91.405.405 0 00-.648.191c-.229.688-.191 1.414.19 2.063a2.851 2.851 0 002.329 1.414c.763.038 1.297-.535 1.755-1.146.153-.191.038-.535-.229-.612z" fill="#F9DEE4"/><path d="M978.212 648.965a11.726 11.726 0 01-2.023-7.108c.115-2.522 1.107-4.967 2.748-6.878-4.122.077-8.205-1.032-11.831-2.942-1.527-.803-2.977-1.796-3.893-3.248-1.756-2.79-.878-6.726 1.527-8.942 2.748-2.484 6.984-2.79 10.457-1.452 2.71 1.07 5.076 3.057 6.527 5.541 1.488 2.522 2.099 5.541 1.679 8.406l.038.039c2.71 1.834 3.473 5.502 1.756 8.292-1.909 3.095-4.199 5.923-6.985 8.292z" fill="#002A40"/><path d="M978.021 647.246c.649-1.032 2.214-1.299 3.244-.611 1.031.649 1.451 2.025 1.222 3.248-.267 1.184-1.107 2.216-2.176 2.828-.839.496-1.832.802-2.786.573-.954-.23-1.755-1.07-1.755-2.026 0-1.566 1.45-2.636 2.251-4.012z" fill="#F68895"/><path d="M978.021 647.246c.649-1.032 2.214-1.299 3.244-.611 1.031.649 1.451 2.025 1.222 3.248-.267 1.184-1.107 2.216-2.176 2.828-.839.496-1.832.802-2.786.573-.954-.23-1.755-1.07-1.755-2.026 0-1.566 1.45-2.636 2.251-4.012z" fill="url(#paint17_linear)"/><path d="M1003.4 600.932c41.82 0 75.72-33.943 75.72-75.813 0-41.871-33.9-75.814-75.72-75.814-41.818 0-75.72 33.943-75.72 75.814 0 41.87 33.902 75.813 75.72 75.813z" fill="#FFEABF"/><path d="M1048.78 570.563c25.07-25.1 25.07-65.795 0-90.896-25.07-25.1-65.715-25.1-90.785 0-25.07 25.101-25.07 65.796 0 90.896 25.07 25.1 65.715 25.1 90.785 0z" fill="#fff"/><path d="M1023.06 601.046c-1.53.535-3.32-.153-4.32-1.452-.99-1.299-1.22-3.057-.84-4.624.39-1.567 1.26-2.981 2.33-4.203.31-.344.69-.688 1.15-.612.38.077.61.459.65.841.04.382-.08.764-.23 1.108-.35 1.032-.73 2.102-1.07 3.134 1.37 0 2.67.993 3.17 2.254.49 1.338.46 3.095-.84 3.554zm-62.213-12.075c.954-.076 1.908-.459 2.481-1.223.381-.535.572-1.184.687-1.834.191-1.185.267-3.019 0-4.586-.115-.726-1.145-.802-1.336-.114-.382 1.222-.611 2.675-.458 3.553-1.069-.42-2.252-.649-3.397-.267-.687.229-1.221.726-1.565 1.376-1.183 2.407 1.756 3.248 3.588 3.095z" fill="#F68895"/><path d="M1029.24 523.17c-.04.764-.08 1.49-.11 2.293-.12 1.796-.27 3.63-.61 5.502a26.114 26.114 0 01-1.26 4.586 18.042 18.042 0 01-2.33 4.241c-.96 1.3-2.1 2.484-3.44 3.44-.65.496-1.37.917-2.13 1.261-.39.191-.77.343-1.15.458-.38.153-.84.268-1.26.382-1.75.344-3.47.268-5.08-.191-1.6-.458-3.13-1.337-4.35-2.751-.57-.726-1.1-1.567-1.37-2.484a6.08 6.08 0 01-.27-1.376c0-.229-.04-.458-.04-.687 0-.23 0-.459.04-.65.19-1.796.96-3.21 1.76-4.242.8-1.07 1.68-1.872 2.56-2.56.45-.344.83-.65 1.25-.955.42-.306.84-.573 1.26-.841a34.729 34.729 0 014.85-2.637 32.9 32.9 0 014.16-1.528v-2.56c0-2.866-.07-5.77-.15-8.789-.12-4.165-.27-8.483-.31-12.954-4.12 1.528-8.32 3.095-12.59 4.662-5.46 1.987-10.803 3.936-16.031 5.808a82.226 82.226 0 01-.153 16.24 86.044 86.044 0 01-1.489 9.133c-.19.726-.343 1.452-.534 2.178s-.382 1.414-.572 2.14c-.42 1.452-.878 2.866-1.451 4.28-1.107 2.828-2.633 5.579-4.847 7.91a16.727 16.727 0 01-3.779 2.942 12.11 12.11 0 01-4.77 1.453c-.84.076-1.68.038-2.519-.077-.878-.153-1.718-.382-2.558-.764a8.723 8.723 0 01-2.29-1.643c-.648-.688-1.183-1.452-1.526-2.293-.725-1.681-.725-3.401-.496-4.815.229-1.414.725-2.637 1.259-3.745.534-1.108 1.26-2.063 1.947-2.904.305-.42.687-.802 1.03-1.223.344-.382.725-.764 1.069-1.108a25.24 25.24 0 014.542-3.363 25.374 25.374 0 014.427-1.91c1.412-.421 2.71-.726 3.931-.841.306-2.025.573-4.089.725-6.19a81.717 81.717 0 00-.534-17.731l-.458-3.248 3.13-1.185a2904.263 2904.263 0 0119.007-7.031c6.22-2.293 12.29-4.471 18.21-6.611l5.72-2.063-.15 6.037c-.16 6.382-.08 12.649-.08 18.763 0 3.057-.04 6.076-.15 9.018-.04.42-.04.803-.04 1.223z" fill="#FFEABF"/><defs><linearGradient id="paint0_linear" x1="491.798" y1="970.751" x2="1157.3" y2="272.307" gradientUnits="userSpaceOnUse"><stop stop-color="#E58DEF"/><stop offset=".02" stop-color="#E391F0"/><stop offset=".183" stop-color="#D7AFF4"/><stop offset=".355" stop-color="#CEC6F7"/><stop offset=".538" stop-color="#C7D7F9"/><stop offset=".741" stop-color="#C3E1FB"/><stop offset="1" stop-color="#C2E4FB"/></linearGradient><linearGradient id="paint1_linear" x1="450.892" y1="726.307" x2="434.499" y2="696.18" gradientUnits="userSpaceOnUse"><stop stop-color="#F9B776"/><stop offset="1" stop-color="#F47960"/></linearGradient><linearGradient id="paint2_linear" x1="480.042" y1="642.07" x2="476.377" y2="636.652" gradientUnits="userSpaceOnUse"><stop stop-color="#F9B776"/><stop offset="1" stop-color="#F47960"/></linearGradient><linearGradient id="paint3_linear" x1="492.411" y1="670.768" x2="490.902" y2="658.792" gradientUnits="userSpaceOnUse"><stop stop-color="#F9B776"/><stop offset="1" stop-color="#F47960"/></linearGradient><linearGradient id="paint4_linear" x1="490.493" y1="652.549" x2="479.486" y2="625.623" gradientUnits="userSpaceOnUse"><stop stop-color="#F9B776"/><stop offset="1" stop-color="#F47960"/></linearGradient><linearGradient id="paint5_linear" x1="527.249" y1="731.159" x2="516.261" y2="687.076" gradientUnits="userSpaceOnUse"><stop stop-color="#F9B776"/><stop offset="1" stop-color="#F47960"/></linearGradient><linearGradient id="paint6_linear" x1="496.747" y1="705.157" x2="492.788" y2="690.176" gradientUnits="userSpaceOnUse"><stop stop-color="#F9B776"/><stop offset="1" stop-color="#F47960"/></linearGradient><linearGradient id="paint7_linear" x1="449.945" y1="738.765" x2="445.387" y2="724.871" gradientUnits="userSpaceOnUse"><stop stop-color="#F9B776"/><stop offset="1" stop-color="#F47960"/></linearGradient><linearGradient id="paint8_linear" x1="500.726" y1="643.11" x2="497.171" y2="635.865" gradientUnits="userSpaceOnUse"><stop stop-color="#F9B776"/><stop offset="1" stop-color="#F47960"/></linearGradient><linearGradient id="paint9_linear" x1="773.494" y1="789.625" x2="768.563" y2="772.16" gradientUnits="userSpaceOnUse"><stop stop-color="#F9B776"/><stop offset="1" stop-color="#F47960"/></linearGradient><linearGradient id="paint10_linear" x1="773.803" y1="778.982" x2="762.953" y2="752.138" gradientUnits="userSpaceOnUse"><stop stop-color="#F9B776"/><stop offset="1" stop-color="#F47960"/></linearGradient><linearGradient id="paint11_linear" x1="782.725" y1="770.485" x2="779.158" y2="764.329" gradientUnits="userSpaceOnUse"><stop stop-color="#F9B776"/><stop offset="1" stop-color="#F47960"/></linearGradient><linearGradient id="paint12_linear" x1="760.852" y1="770.485" x2="757.291" y2="764.318" gradientUnits="userSpaceOnUse"><stop stop-color="#F9B776"/><stop offset="1" stop-color="#F47960"/></linearGradient><linearGradient id="paint13_linear" x1="1015.8" y1="662.678" x2="986.693" y2="591.456" gradientUnits="userSpaceOnUse"><stop stop-color="#F9B776"/><stop offset="1" stop-color="#F47960"/></linearGradient><linearGradient id="paint14_linear" x1="947.456" y1="651.649" x2="909.402" y2="584.179" gradientUnits="userSpaceOnUse"><stop stop-color="#F9B776"/><stop offset="1" stop-color="#F47960"/></linearGradient><linearGradient id="paint15_linear" x1="971.471" y1="664.199" x2="967.038" y2="647.534" gradientUnits="userSpaceOnUse"><stop stop-color="#F9B776"/><stop offset="1" stop-color="#F47960"/></linearGradient><linearGradient id="paint16_linear" x1="971.399" y1="654.129" x2="963.127" y2="625.612" gradientUnits="userSpaceOnUse"><stop stop-color="#F9B776"/><stop offset="1" stop-color="#F47960"/></linearGradient><linearGradient id="paint17_linear" x1="979.962" y1="652.084" x2="978.026" y2="645.398" gradientUnits="userSpaceOnUse"><stop stop-color="#F9B776"/><stop offset="1" stop-color="#F47960"/></linearGradient></defs></svg>